# xmcd
#
# Track frame offsets: 
#        150
#        9627
#        19977
#        33727
#        44862
#        57110
#        68715
#        83532
#        94090
#        104170
#        118322
#        128787
#        137512
#        147717
#
# Disc length: 2111 seconds
#
# Revision: 0
# Processed by: cddbd v1.4PL0 Copyright (c) Steve Scherf et al.
# Submitted via: ExactAudioCopy v0.90b4
#
DISCID=d2083d0e
DTITLE=Bobby Hachey - Noel Country
DYEAR=1900
DGENRE=Country
TTITLE0=Let It Snow, Let It Snow, Let It Snow
TTITLE1=Winter Wonderland
TTITLE2=White Christmas
TTITLE3=Le Sentier De Neige
TTITLE4=Please Come For Christmas
TTITLE5=Blue Christmas
TTITLE6=The Christmas Song
TTITLE7=Frosty The Snow Man
TTITLE8=Santa Clause Is Coming To Town
TTITLE9=What A Merry Christmas This Could Be
TTITLE10=The Merry Christmas Polka
TTITLE11=Christmas Time Is Coming
TTITLE12=All I Want For Christmas Is You
TTITLE13=Santa Looked A Lot Like Daddy
EXTD=
EXTT0=
EXTT1=
EXTT2=
EXTT3=
EXTT4=
EXTT5=
EXTT6=
EXTT7=
EXTT8=
EXTT9=
EXTT10=
EXTT11=
EXTT12=
EXTT13=
PLAYORDER=
